<svg version="1" xmlns="http://www.w3.org/2000/svg" width="1365.333" height="1365.333" viewBox="0 0 1024.000000 1024.000000"><path d="M491.9 62c-50.5 8-86.9 41.1-99.3 90.5-4.6 18.3-5.8 32.2-5.3 60.5.6 35.6 2.5 91 3.8 113 .6 10.2 1.4 24.5 1.6 31.7l.5 13.3-5 10.2c-4.4 9-9.2 15.5-37.8 51.3-45 56.4-48.3 61.7-56.4 90.6-11.9 42.1-17.5 55.9-40.9 100.7-16.2 31.1-17.6 35-17.6 50.2.1 9.1.5 13.1 2.4 19 1.2 4.1 2.5 8.5 2.8 9.6.7 2.9-9.8 21.1-16 28-2.9 3.2-7.1 6.4-10.5 8.1-5.4 2.6-6.5 2.8-25.7 3.4-20.9.7-23.9 1.2-30.9 5.3-12 7-14.7 20.5-10.9 52.9 2.2 19.3 2.2 43 0 52.2-1 3.8-4.4 12.6-7.7 19.5-6.9 14.7-8.4 20-7.8 27.9.8 10.7 7.5 17.2 22.8 21.7 4.7 1.4 16.2 4.9 25.5 7.9 20 6.3 34.1 10.1 56 15 42.6 9.6 56.5 13.7 82.1 24.4 23.4 9.7 32.6 12.2 44.4 12.3 5.8.1 11.9-.5 15.7-1.5 19.1-5 35.9-19.4 43.1-36.9l2.7-6.8 7-1.5c25-5.3 35.4-6 75.5-4.6 49.1 1.6 75.7 5.4 123.8 17.2l9.2 2.3 2.9 5.1c4.1 7.3 12 13.9 22.5 19 12.9 6.3 22.6 8.7 36.1 8.8 12.7.1 20.2-1.5 31.4-6.9 10.5-4.9 18.2-10.7 32.9-24.7 30.5-29 42.4-37.4 80.2-55.9 11.3-5.5 24.7-12.5 29.8-15.5 16.7-9.7 29.2-25 29.2-35.4-.1-9.1-4.4-14.6-21-26.4-21.9-15.6-36.8-30.3-42.4-41.7-3.2-6.4-3.8-8.8-4.7-18.8-2-22.4-7.1-32.7-18.7-37.6l-3.3-1.3 4.5 4.4c4.5 4.6 8.1 11.8 7.4 15.1-.2 1.3-1.3 2-3.6 2.2-2.5.3-3.2.7-2.8 2 .2.9.7 3.3 1.1 5.2 1.4 7.4 8.2 23.4 12 28 .6.8 1.5 2.3 1.9 3.4.3 1 3.5 6.2 7.1 11.6 7.1 10.6 14.1 17.7 24.3 24.4 6.8 4.5 11.2 8.5 13 12.1 1.3 2.6.6 10.3-1.3 13.1-1.9 2.9-9.2 10.4-10.1 10.4-.4 0-2.2 1.1-3.9 2.5-3.1 2.3-14.5 7.8-14.5 7 0-.3-1.2 0-2.7.6-2.5 1-24.2 7.4-28.3 8.3-5.2 1.3-10.3 2.9-13.7 4.3-2.1.9-4 1.7-4.3 1.8-3.6.9-18.9 9.8-32.6 19-14.7 9.9-24 14.4-37.9 18.6-10 2.9-12.3 3.3-24.5 3.3-9.2.1-14.8-.3-17.4-1.3-4.6-1.6-13.6-9.6-13.6-12 0-1-.6-2.3-1.2-2.9-1.6-1.6-1.7-23.8-.3-38.2 1-10.9 1-38.1 0-42.5-.4-1.7-.8-23.2-1-47.9l-.2-44.9-3-2.6c-1.6-1.4-3.8-3.1-4.8-3.7-3-1.7-1.1-4 5.9-7.4 3.6-1.7 7.1-3.8 7.8-4.7 1.1-1.4.4-1.5-6.2-1.1-4.5.2-9 1.1-11.3 2.2-4.2 2.1-8.2 8-9.2 13.6-.3 1.9-.1 14.7.4 28.5.5 13.7.7 32 .5 40.5l-.6 15.5-16.7 16.5c-40.8 40.4-69.5 58.4-105.4 66.1-35.8 7.6-73.9 3.4-106.9-11.8-7.6-3.5-7.9-3.8-17.2-16.2-5.3-6.9-11.8-15.3-14.5-18.6l-4.9-6 8.3.4c9.9.4 16.2-1.4 21.8-6 5.9-4.9 8.1-10.1 8.2-19 0-6.7-.4-8.3-3.9-15.3C414.4 786 405.7 777 384 760c-21.4-16.9-42.2-34.5-60.3-51L310 696.6v-15.1c0-53.8 18.7-114.6 51.1-166.1l8.1-12.9.3-11c.6-23.1 7.6-40.4 28.5-70.5 6.7-9.6 13.4-20.2 15-23.6 3.9-8 6-17.2 6-26 0-3.9.3-9.9.7-13.4l.6-6.3 2.9 3.4c1.6 1.9 6.2 7.5 10.3 12.5 18.1 22.2 29.3 28.4 51 28.4 21.6-.1 38-6 63.4-23.2 13.2-8.9 23.5-14.4 31.9-16.9 2.3-.7 5.8-2.8 7.8-4.7 4.1-4 4-4.1 8 5.8 1.5 3.6 9.3 20.2 17.4 37 18.1 37.3 23.8 53.1 29.6 82 1.6 8.1 2 8.9 8.1 16 22.3 25.9 36.8 57.7 43.2 94.5 5.4 31.2 5.3 73.2-.5 116.6-.4 3.3-1.2 4.9-2.3 5.2-.9.2 1.3.7 4.8 1.1l6.3.8-.6 3.7c-.4 2-.9 6.5-1.3 10.1-.5 5.8-1 6.9-4.5 10.5-5.1 5.3-6.1 9.4-5.4 23.4.5 13.2.7 14.1 1.7 14.1.4 0 .6.8.4 1.7-.1 1 .9 3.8 2.3 6.3s2.5 4.6 2.4 4.8c-.7.9 4.7 9.8 8.3 13.5 3.7 3.9 12.3 9.5 16 10.4 12.1 3 18.3 2.6 30.8-2 3.1-1.2 5.7-2.6 5.7-3 0-.5.5-.5 1-.2.6.3 1 .1 1-.4 0-.6.6-1.1 1.4-1.1.8 0 1.7-.7 2-1.6.3-.8 1-1.3 1.5-.9.6.3 1.8-.6 2.7-2 .9-1.4 2.2-2.5 2.8-2.5 1.4 0 5.6-4.1 5.6-5.4 0-.5 1.1-2.2 2.5-4 3.7-4.5 3.8-4.7 6-8.9 1.1-2 2.3-3.7 2.8-3.7.4 0 .5-.5.2-1-.4-.6-.1-1.8.6-2.6 2.1-2.6 5.9-12.6 6.5-17.6.5-3.7 1.9-6.5 6.1-12 2.9-4 6.5-9.7 7.9-12.8 1.5-3 4.8-10 7.5-15.5 7.3-15.2 10.3-27.1 11.5-45.8 2.7-43.5-20.3-126.7-48-173.4-7.3-12.3-14.1-21.2-28.6-37.3-16.2-17.9-22.5-25.8-33.3-42-9.5-14.2-12.8-20.3-23.4-44-7.4-16.5-18.1-38.1-21.7-43.8-2.1-3.3-2.6-6.1-4-23.2-1-10.7-2.4-36.4-3.1-57-2.1-56.6-5.2-73.5-18.6-100.3-21.5-43.3-56.7-71.1-102.9-81.2-8.7-1.9-43.2-2.9-52.1-1.5zm75.9 134.2c5.6 2.6 15.7 12.5 19.1 18.7 1.3 2.4 1.9 4.1 1.3 3.7-.7-.4-1.8.7-2.9 2.8l-1.7 3.6 5.5 4.9 5.4 4.8v16.4c-.1 14.5-.4 17.2-2.4 22.8-3 8.6-8.6 16.9-11.9 17.8-2.3.5-2 .8 3.4 3.3 7.1 3.2 8.6 4.9 8.8 9.7.1 3.5-.2 3.8-3.7 5-4.3 1.4-7.8 1.6-12.4.7-5.2-1-7.5.1-15.9 7.6-9.3 8.4-25.4 19.5-35 24.4-16.6 8.3-33.8 12-56.1 12-11.9.1-16.5-.2-17.5-1.2s-1.4-10.1-1.7-39.4l-.3-38.2 2.8-2.3c2.7-2.1 2.9-2.8 3.3-10.8.7-18.2-7.9-33.2-20.2-35.2-4.9-.8-10.3 2.1-13.2 7.1-3 5.1-4.9 16-4.1 22.9 1.3 9.8 7.5 20 15.2 24.8l3.5 2.1-2.3 2.6c-3.5 3.8-9.9 8.2-11.9 8.2-2.9 0-8.6-8.7-11.3-17-2.7-8.4-4.6-23.7-4.6-36.6v-8.6l5.8-5.7c3.2-3.1 7.8-6.6 10.3-7.8 2.5-1.3 5.4-3.2 6.4-4.3 1.8-2 7.9-2.8 8.9-1.1.3.4 4 1.1 8.3 1.5 13.2 1.1 14.6 1.8 17.6 8.4 3.2 7.1 5.5 15.7 6.3 23.6.6 6.1.6 6.1-4.5 13.3-2.8 4-5.1 7.4-5.1 7.6 0 .2 3.9-1 8.8-2.6 15.2-5.2 32.4-4.7 45.9 1.3l4.4 2-5.5-10.6-5.6-10.5.1-9.2c0-5.1.6-11 1.2-13.2 1-3.4 2-4.4 6.7-6.7 6.8-3.3 18.8-5.8 27.7-5.8h6.8l5.4-9.5c2.9-5.2 5.5-9.5 5.7-9.5.2 0 2.6 1 5.2 2.2zM277.1 695.3c7 1.3 16.5 12.5 25.1 29.2 3.8 7.4 16 30.8 18.8 36.1.9 1.8 2.6 4.5 3.8 6l2.2 2.9-.5-3.5c-.2-1.9-.9-5-1.4-6.8-1.8-6.1 1-3 8 8.9 3.7 6.3 12.2 19.8 18.8 30 21 32.2 29.7 47.8 30.5 55.1.4 3.3.2 3.7-1 2.7-1.9-1.5-1.8-.7.7 7.6 1.1 3.9 2.7 9.6 3.5 12.8 1.5 6.4 2.2 21.7 1.1 25.7-.4 1.4-.9 3.4-1.1 4.5-2.2 11.2-17.4 26.1-28.8 28-2.1.4-4 1-4.2 1.3-.9 1.5-20.2.4-26.1-1.4-3.3-1-6.5-1.9-7-2-.6-.1-3.3-1.1-6-2.2-2.8-1.1-8.1-3.2-12-4.5-3.8-1.4-7.9-2.9-9-3.3-1.1-.4-2.2-.8-2.5-.9-.3 0-2.7-.8-5.5-1.7-2.7-.9-7.7-2.2-11-2.9-3.3-.7-6.2-1.3-6.5-1.4-.3-.1-2.5-.5-5-1-5.3-1-5.9-1.2-6.2-1.5-.2-.1-1.6-.3-3.3-.5-1.6-.2-9.7-1.8-18-3.5-8.2-1.8-16.1-3.4-17.5-3.7-1.4-.2-3.4-.8-4.5-1.3s-10.1-3-19.9-5.6c-9.9-2.5-20.3-5.6-23.1-6.9-10.7-4.7-12.6-13.8-6.1-29.9 5.4-13.3 6.3-17.2 6.5-27.6.1-6.9-.6-12.8-2.5-21.5-3.7-17.4-4.3-20.4-5-26.1-.7-5.5.9-14.4 3.2-18 1.5-2.2 6.9-6.5 8.7-6.9.7-.1 2-.5 2.9-.9 2.3-1 16.6-1 30.5-.1 9 .6 11.8.5 15-.7 2.1-.9 4.1-1.6 4.6-1.7 2.4-.3 7.8-4 11.5-8 5.2-5.6 8.5-12.5 10.1-21.1 2.1-11.2 3.2-15.3 5.7-21.6 4.5-11.1 10.8-14.4 22.5-12.1z"/><path d="M547.1 225c-16.2 3.8-24.1 29.4-14.5 47 2.4 4.5 3.7 5.5 10.7 9 4.4 2.2 9.1 4 10.6 4 9.6 0 19.7-8.3 22.7-18.6 2.3-8.2 1.6-19.3-1.9-26-5.6-11.1-17.6-17.7-27.6-15.4zM499.4 272.4c-2.9 2.2-1.4 2.7 6.7 2.4l7.4-.3-3.7-1.8c-4.5-2.1-7.8-2.2-10.4-.3zM457 274c-2.7 2.7-2.5 4 .5 4 2.1 0 2.5-.5 2.5-3 0-3.5-.3-3.7-3-1zM683.8 707.7c.7.3 1.6.2 1.9-.1.4-.3-.2-.6-1.3-.5-1.1 0-1.4.3-.6.6z"/></svg>